# xmcd CD database file
#
# Track frame offsets:
#	150
#	16887
#	39836
#	56604
#	80229
#	100907
#	112637
#	138878
#	156518
#	174533
#	190884
#	226546
#	256641
#	268626
#	281543
#	300993
#	328352
#
# Disc length: 4625 seconds
#
# Revision: 1
# Processed by: cddbd v1.5.2PL0 Copyright (c) Steve Scherf et al.
# Submitted via: CDex 1.70beta2
#
DISCID=d5120f11
DTITLE=Blues Alive - Blues Alive 2013
DYEAR=2013
DGENRE=Blues
TTITLE0=Przytula&Kruk - Leave This Time
TTITLE1=Steve Walsh - Funky Dumpling
TTITLE2=Earl Thomas - High Life
TTITLE3=Robert Křesťan&Druhá tráva - Dívka ze severu
TTITLE4=Broken Harp - Cold Blooded Murderer
TTITLE5=Jana Štromská&Diana Winklerová - Listopad
TTITLE6=Justin Lavash Duo - Strange Blues
TTITLE7=Jerguš Oravec - Get Away
TTITLE8=Tere Estrada - El Último Deseo
TTITLE9=Michal Müller - Oh What A Rainy Day
TTITLE10=Rick Estrin&The Nightcats - You Can't Come Back
TTITLE11=Los Agentos - Afrikaňski Snieg
TTITLE12=Heymoonshaker - T.O.T.E.M.
TTITLE13=Mystery Gang - Rockabilly Star
TTITLE14=Paul Lamb - Take These Chains From My Heart
TTITLE15=Walter Wolfman Washington&The Roadmasters - At Night In City
TTITLE16=The Golden State&Lone Star revue - I'm Gonna Ruin You
EXTD=YEAR: 2013
EXTT0=
EXTT1=
EXTT2=
EXTT3=
EXTT4=
EXTT5=
EXTT6=
EXTT7=
EXTT8=
EXTT9=
EXTT10=
EXTT11=
EXTT12=
EXTT13=
EXTT14=
EXTT15=
EXTT16=
PLAYORDER=
